custom-analysis
version=1
nRows=4
nColumns=98
inDegrees=no

This file contains tibia displacement and acting force.

Units are S.I. units (seconds, meters, Newtons, ...)
Angles are in degrees.

endheader
time	APT	SIT	knee_angle	aACL_R_force	pACL_R_force	aPCL_R_force	pPCL_R_force	aMCL_R_force	mMCL_R_force	pMCL_R_force	aLCL_R_force	mLCL_R_force	pLCL_R_force	aPCL_L_force	pPCL_L_force	aMCL_L_force	aLCL_L_force	aACL_R_length	pACL_R_length	aPCL_R_length	pPCL_R_length	aMCL_R_length	mMCL_R_length	pMCL_R_length	aLCL_R_length	mLCL_R_length	pLCL_R_length	aPCL_L_length	pPCL_L_length	aMCL_L_length	aLCL_L_length	aACL_R_strain	pACL_R_strain	aPCL_R_strain	pPCL_R_strain	aMCL_R_strain	mMCL_R_strain	pMCL_R_strain	aLCL_R_strain	mLCL_R_strain	pLCL_R_strain	aPCL_L_strain	pPCL_L_strain	aMCL_L_strain	aLCL_L_strain	femur_lat_meniscii_r.femur_lat_r.force.X	femur_lat_meniscii_r.femur_lat_r.force.Y	femur_lat_meniscii_r.femur_lat_r.force.Z	femur_lat_meniscii_r.femur_lat_r.torque.X	femur_lat_meniscii_r.femur_lat_r.torque.Y	femur_lat_meniscii_r.femur_lat_r.torque.Z	femur_lat_meniscii_r.meniscus_lat_r.force.X	femur_lat_meniscii_r.meniscus_lat_r.force.Y	femur_lat_meniscii_r.meniscus_lat_r.force.Z	femur_lat_meniscii_r.meniscus_lat_r.torque.X	femur_lat_meniscii_r.meniscus_lat_r.torque.Y	femur_lat_meniscii_r.meniscus_lat_r.torque.Z	femur_med_meniscii_r.femur_med_r.force.X	femur_med_meniscii_r.femur_med_r.force.Y	femur_med_meniscii_r.femur_med_r.force.Z	femur_med_meniscii_r.femur_med_r.torque.X	femur_med_meniscii_r.femur_med_r.torque.Y	femur_med_meniscii_r.femur_med_r.torque.Z	femur_med_meniscii_r.meniscus_med_r.force.X	femur_med_meniscii_r.meniscus_med_r.force.Y	femur_med_meniscii_r.meniscus_med_r.force.Z	femur_med_meniscii_r.meniscus_med_r.torque.X	femur_med_meniscii_r.meniscus_med_r.torque.Y	femur_med_meniscii_r.meniscus_med_r.torque.Z	femur_med_tibia_r.tibia_upper_r.force.X	femur_med_tibia_r.tibia_upper_r.force.Y	femur_med_tibia_r.tibia_upper_r.force.Z	femur_med_tibia_r.tibia_upper_r.torque.X	femur_med_tibia_r.tibia_upper_r.torque.Y	femur_med_tibia_r.tibia_upper_r.torque.Z	femur_med_tibia_r.femur_med_r.force.X	femur_med_tibia_r.femur_med_r.force.Y	femur_med_tibia_r.femur_med_r.force.Z	femur_med_tibia_r.femur_med_r.torque.X	femur_med_tibia_r.femur_med_r.torque.Y	femur_med_tibia_r.femur_med_r.torque.Z	femur_lat_tibia_r.tibia_upper_r.force.X	femur_lat_tibia_r.tibia_upper_r.force.Y	femur_lat_tibia_r.tibia_upper_r.force.Z	femur_lat_tibia_r.tibia_upper_r.torque.X	femur_lat_tibia_r.tibia_upper_r.torque.Y	femur_lat_tibia_r.tibia_upper_r.torque.Z	femur_lat_tibia_r.femur_lat_r.force.X	femur_lat_tibia_r.femur_lat_r.force.Y	femur_lat_tibia_r.femur_lat_r.force.Z	femur_lat_tibia_r.femur_lat_r.torque.X	femur_lat_tibia_r.femur_lat_r.torque.Y	femur_lat_tibia_r.femur_lat_r.torque.Z	femur_lat_meniscii_force_r	femur_med_meniscii_force_r	femur_lat_tibia_force_r	femur_med_tibia_force_r
      0.00000000	      0.00000000	      0.00000000	      1.66574369	     17.58855542	     41.35427838	      0.00000000	      0.00000000	      0.00000000	      4.34794595	     47.41152007	      1.86146449	      0.00000000	      2.98101398	      0.00000000	      0.00000000	      0.00000001	      0.00000000	      0.03250699	      0.02691945	      0.02939526	      0.02968776	      0.05649158	      0.06132051	      0.06358360	      0.05697715	      0.05538222	      0.05352596	      0.01525851	      0.01651186	      0.06550154	      0.04489616	      0.04842665	      0.07425566	     -0.05467185	     -0.00669289	     -0.05889721	      0.02553805	      0.08267947	      0.01786360	     -0.01662651	      0.02260599	      0.00000079	     -0.32847694	      0.00000060	     -0.00000086	      0.13243531	      0.28299364	      0.00246511	     -0.00837665	      0.00349976	      0.05534422	     -0.13243531	     -0.28299364	     -0.00246511	      0.00891056	     -0.00419209	     -0.00454827	      0.08239412	      3.64420958	      0.29868801	     -0.04628927	     -0.00646305	      0.09076941	     -0.08239412	     -3.64420958	     -0.29868801	     -0.04962961	      0.00624440	     -0.06164219	      0.00000000	      0.00000000	      0.00000000	      0.00000000	      0.00000000	      0.00000000	      0.00000000	      0.00000000	      0.00000000	      0.00000000	      0.00000000	      0.00000000	      0.00000000	      0.00000000	      0.00000000	      0.00000000	      0.00000000	      0.00000000	      0.00000000	      0.00000000	      0.00000000	      0.00000000	      0.00000000	      0.00000000	      0.31245893	      3.65735789	      0.00000000	      0.00000000
      0.00100000	     -0.00002569	      0.00004806	      1.65993868	    -24.55908835	     -2.04775665	      0.00000000	      0.00000000	      0.00000000	    -55.70788455	    -13.86380739	    -56.31390018	      0.00000000	    -57.19138831	      0.00000000	      0.00000000	      0.00000001	      0.00000000	      0.03244982	      0.02686395	      0.02937094	      0.02965950	      0.05644579	      0.06127421	      0.06353676	      0.05694069	      0.05534462	      0.05348837	      0.01525851	      0.01651186	      0.06550154	      0.04489616	      0.04658274	      0.07204073	     -0.05545403	     -0.00763857	     -0.05966003	      0.02476367	      0.08188198	      0.01721224	     -0.01729416	      0.02188786	      0.00000079	     -0.32847694	      0.00000060	     -0.00000086	     -0.09893637	      1.32507458	      0.02759903	     -0.04681094	     -0.00272360	     -0.03761190	      0.09893637	     -1.32507458	     -0.02759903	      0.04312329	      0.00326213	     -0.00146331	     -1.00795915	      8.38963860	      0.92208738	     -0.20987105	      0.00500686	     -0.30329919	      1.00795915	     -8.38963860	     -0.92208738	     -0.10122660	      0.00095459	     -0.09101062	      0.00000000	      0.00000000	      0.00000000	      0.00000000	      0.00000000	      0.00000000	      0.00000000	      0.00000000	      0.00000000	      0.00000000	      0.00000000	      0.00000000	      0.00000000	      0.00000000	      0.00000000	      0.00000000	      0.00000000	      0.00000000	      0.00000000	      0.00000000	      0.00000000	      0.00000000	      0.00000000	      0.00000000	      1.32904957	      8.50013309	      0.00000000	      0.00000000
      0.00291040	     -0.00016605	      0.00027888	      1.62848789	    -61.20216102	    -44.72709080	      0.00000000	      0.00000000	      0.00000000	    -92.66803576	    -53.98600863	    -86.26587896	      0.00000000	    -89.31996369	      0.00000000	      0.00000000	      0.00000001	      0.00000000	      0.03215517	      0.02657673	      0.02927222	      0.02953892	      0.05623081	      0.06105538	      0.06331456	      0.05677890	      0.05517644	      0.05332012	      0.01525851	      0.01651186	      0.06550154	      0.04489616	      0.03707945	      0.06057886	     -0.05862867	     -0.01167292	     -0.06324137	      0.02110398	      0.07809832	      0.01432188	     -0.02028032	      0.01867351	      0.00000079	     -0.32847694	      0.00000060	     -0.00000086	     -6.83063322	     17.94884117	      2.45473983	     -1.51512940	     -0.20470784	     -2.76681956	      6.83063322	    -17.94884117	     -2.45473983	      0.66378385	      0.24238473	      0.12234962	    -10.50416158	     46.27235865	      9.65458379	     -3.13117521	      0.03226452	     -3.76042475	     10.50416158	    -46.27235865	     -9.65458379	     -0.34350538	      0.03095275	     -0.32300545	      0.00000000	      0.00000000	      0.00000000	      0.00000000	      0.00000000	      0.00000000	      0.00000000	      0.00000000	      0.00000000	      0.00000000	      0.00000000	      0.00000000	      0.00000000	      0.00000000	      0.00000000	      0.00000000	      0.00000000	      0.00000000	      0.00000000	      0.00000000	      0.00000000	      0.00000000	      0.00000000	      0.00000000	     19.36089350	     48.42189147	      0.00000000	      0.00000000
      0.00482081	     -0.00030048	      0.00055250	      1.59894953	    -60.28787602	    -50.33336603	      0.00000000	      0.00000000	      0.00000000	    -90.29897904	    -54.29582055	    -91.96535762	      0.00000000	    -95.49723914	      0.00000000	      0.00000000	      0.00000001	      0.00000000	      0.03180907	      0.02623613	      0.02915187	      0.02939162	      0.05598588	      0.06080289	      0.06305782	      0.05658896	      0.05497865	      0.05312160	      0.01525851	      0.01651186	      0.06550154	      0.04489616	      0.02591694	      0.04698677	     -0.06249901	     -0.01660150	     -0.06732173	      0.01688119	      0.07372665	      0.01092879	     -0.02379240	      0.01488069	      0.00000079	     -0.32847694	      0.00000060	     -0.00000086	    -18.24993129	     61.69988608	      9.89808336	     -5.80794406	     -0.57250288	     -7.27253464	     18.24993129	    -61.69988608	     -9.89808336	      2.31799550	      0.67642108	      0.19004607	    -13.40200751	    117.87271292	     28.79930796	     -9.72815789	     -0.23317731	     -3.96512508	     13.40200751	   -117.87271292	    -28.79930796	     -0.74181570	      0.33226144	     -1.31270939	      3.34433992	    -20.84494639	     -1.26182081	     -0.11318471	     -0.00500979	     -0.19112321	     -3.34433992	     20.84494639	      1.26182081	     -0.26525691	      0.02346920	     -1.11684611	      0.00000000	      0.00000000	      0.00000000	      0.00000000	      0.00000000	      0.00000000	      0.00000000	      0.00000000	      0.00000000	      0.00000000	      0.00000000	      0.00000000	     65.09921650	    122.07780468	      0.00000000	     21.14919836
